<svg xmlns="http://www.w3.org/2000/svg">
<!--
	This is a custom icon file for CAST svg-edit extensions.  This holds NEW icons that add
	new functionality to the software.  Modified, replacement icons are located in the default
	icon file in this same directory.
-->

	<!--=======================-->
	<!-- Extension Buttons     -->
	<!--=======================-->

	<g id="cast_drawing_starters">
		<svg xmlns="http://www.w3.org/2000/svg" width="72" height="30" viewBox="0 0 72 30">
			<g>
				<rect id="svg_18" x="27.5" y="2.956" fill="#202020" width="17" height="13.137"/>
				<rect id="svg_15" x="28.662" y="4.116" fill="#232947" stroke="#FFFFFF" stroke-width="0.0443" width="14.685" height="10.817"/>
				<linearGradient id="starters_grad" gradientUnits="userSpaceOnUse" x1="-996.1445" y1="407.5605" x2="-996.1448" y2="407.5381" gradientTransform="matrix(407.0881 0 0 -179.0722 405554.5625 72987.625)">					
					<stop  offset="0" style="stop-color:#162E84"/>
					<stop  offset="1" style="stop-color:#97C4EF"/>
				</linearGradient>
				<rect id="svg_20" x="29.82" y="5.192" fill="url(#starters_grad)" width="12.337" height="5.427"/>
				<linearGradient id="starters_grad2" gradientUnits="userSpaceOnUse" x1="-996.145" y1="406.3164" x2="-996.145" y2="406.2861" gradientTransform="matrix(407.0573 0 0 -102.6102 405524.125 41702.9609)">
					<stop  offset="0" style="stop-color:#10284C"/>
					<stop  offset="1" style="stop-color:#5374AD"/>
				</linearGradient>
				<rect id="svg_24" x="29.82" y="10.639" fill="url(#starters_grad2)" width="12.335" height="3.109"/>
				<circle id="svg_26" fill="#FFFFAD" cx="32.242" cy="7.583" r="1.417"/>
				<path id="svg_14" fill="#404040" d="M37.987,10.639l0.543-3.751l-2.417,3.751H37.987L37.987,10.639z"/>
				<path id="svg_17" fill="#404040" d="M38.53,6.938c2.123,0.05,1.875,3.257-0.494,3.75C38.581,9.7,39.319,7.875,38.53,6.938z"/>
			</g>
			<text transform="matrix(1 0 0 1 2.4897 27.7773)" font-family="'Arial'" font-size="9">Drawing Starters</text>
		</svg>
	</g>
	<g id="cast_upload">
		<svg version="1.1"  xmlns="http://www.w3.org/2000/svg" xmlns:xlink="http://www.w3.org/1999/xlink" x="0px" y="0px" width="28px" height="30px" viewBox="0 0 28 30" enable-background="new 0 0 28 30" xml:space="preserve">
			<g>
				<text transform="matrix(1 0 0 1 -0.2603 27.7773)" font-family="'Arial'" font-size="9">Upload</text>
				<linearGradient id="upload_grad" gradientUnits="userSpaceOnUse" x1="-749.228" y1="1.063" x2="-749.2109" y2="1.063" gradientTransform="matrix(512.8207 0 0 512.8206 384227.5312 -535.5)">
					<stop  offset="0" style="stop-color:#AFE853"/>
					<stop  offset="1" style="stop-color:#52A310"/>
				</linearGradient>
	
				<path id="svg_33" fill="url(#upload_grad)" stroke="#404041" d="M11.121,15.852h5.762v-4.259h3.381l-6.262-8.268l-6.265,8.268h3.384V15.852z"/>
			</g>
		</svg>
	</g>
	<g id="cast_web_image">
		<svg version="1.1"  xmlns="http://www.w3.org/2000/svg" xmlns:xlink="http://www.w3.org/1999/xlink" x="0px" y="0px" width="46px" height="30px" viewBox="0 0 46 30" enable-background="new 0 0 46 30" xml:space="preserve">
			<text transform="matrix(1 0 0 1 0.0713 27.7773)" font-family="'Arial'" font-size="9">Web Image</text>
			<g>
				<linearGradient id="SVGID_1_" gradientUnits="userSpaceOnUse" x1="23.9844" y1="14.0425" x2="14.0112" y2="14.0425" gradientTransform="matrix(1 0 0 -1 4 24)">
					<stop  offset="0" style="stop-color:#10284C"/>
					<stop  offset="1" style="stop-color:#5374AD"/>
				</linearGradient>
				<path fill="url(#SVGID_1_)" d="M25.979,9.212c0.765-0.417,1.338-0.809,1.67-1.054c-0.299-0.774-0.771-1.435-1.358-1.95c-0.388,0.209-0.853,0.449-1.388,0.694C25.334,7.563,25.721,8.337,25.979,9.212z M24.463,6.278c0.436-0.193,0.822-0.387,1.16-0.562c-0.698-0.434-1.501-0.69-2.337-0.738C23.645,5.315,24.057,5.751,24.463,6.278z M25.327,9.546c-0.24-0.908-0.638-1.695-1.082-2.356c-1.104,0.464-2.438,0.909-3.931,1.188c0.02,0.941,0.213,1.785,0.511,2.534C22.587,10.694,24.131,10.13,25.327,9.546zM21.15,11.624c0.361,0.699,0.798,1.293,1.222,1.773c1.198-0.127,2.244-0.494,3.126-0.943c0.104-0.769,0.088-1.484-0.012-2.145C24.309,10.866,22.834,11.392,21.15,11.624z M22.092,14.151c-0.593,0.043-1.212,0.031-1.857-0.051c0.781,0.523,1.709,0.818,2.668,0.837C22.662,14.729,22.385,14.468,22.092,14.151z M20.398,11.705c-0.662,0.054-1.351,0.058-2.062,0.002c0.2,0.533,0.479,1.017,0.824,1.435c0.819,0.213,1.597,0.306,2.323,0.303C21.098,12.949,20.716,12.368,20.398,11.705z M27.876,8.911c-0.394,0.281-0.978,0.664-1.716,1.057c0.121,0.633,0.172,1.314,0.119,2.039c0.701-0.439,1.256-0.902,1.642-1.271C28.018,10.143,28.007,9.526,27.876,8.911zM25.896,14.009c0.727-0.518,1.287-1.215,1.645-2.007c-0.391,0.299-0.852,0.608-1.372,0.899C26.104,13.261,26.016,13.632,25.896,14.009z M23.971,14.845c0.166-0.033,0.338-0.075,0.504-0.125c0.153-0.049,0.305-0.104,0.45-0.165c0.168-0.423,0.3-0.833,0.398-1.229c-0.696,0.31-1.478,0.568-2.328,0.717C23.45,14.474,23.822,14.743,23.971,14.845z M20.087,10.981c-0.276-0.744-0.465-1.573-0.503-2.482c-0.452,0.064-0.918,0.116-1.395,0.145c-0.205,0.745-0.237,1.543-0.069,2.338l0.002-0.034C18.8,11.017,19.457,11.022,20.087,10.981z M19.852,6.086c-0.599,0.487-1.065,1.103-1.381,1.793c0.377-0.03,0.754-0.075,1.121-0.13C19.621,7.218,19.705,6.663,19.852,6.086zM22.234,5.028c-0.235,0.038-0.476,0.086-0.709,0.158c-0.25,0.078-0.491,0.178-0.717,0.291c-0.269,0.754-0.418,1.466-0.474,2.137c1.292-0.258,2.46-0.646,3.454-1.047C23.204,5.841,22.611,5.323,22.234,5.028z"/>
				<path fill="#404041" d="M20.934,3.272c-1.789,0.552-3.252,1.767-4.125,3.418c-0.867,1.653-1.045,3.547-0.492,5.332c0.554,1.787,1.765,3.25,3.416,4.121c1.654,0.875,3.55,1.049,5.332,0.498c1.789-0.553,3.252-1.766,4.125-3.418c0.535-1.022,0.81-2.134,0.81-3.255c0-0.695-0.106-1.395-0.315-2.078c-0.555-1.787-1.765-3.25-3.418-4.121C24.611,2.896,22.716,2.72,20.934,3.272z M20.236,15.194c-1.397-0.738-2.428-1.977-2.895-3.488c-0.468-1.511-0.318-3.115,0.422-4.512c0.736-1.4,1.978-2.428,3.485-2.894c1.515-0.469,3.115-0.319,4.513,0.419c1.398,0.738,2.428,1.977,2.895,3.486v0.001c0.468,1.511,0.318,3.114-0.42,4.513c-0.738,1.399-1.979,2.426-3.487,2.893C23.236,16.081,21.634,15.932,20.236,15.194z M29.684,7.89L29.684,7.89L29.684,7.89z"/>
			</g>
		</svg>
	</g>
	<g id="cast_drawing_shapes">
		<svg version="1.1" xmlns="http://www.w3.org/2000/svg" xmlns:xlink="http://www.w3.org/1999/xlink" x="0px"
			 y="0px" width="40px" height="30px" viewBox="0 0 40 30" enable-background="0 0 40 30" xml:space="preserve">
		  <text transform="matrix(1 0 0 1 5 27.7773)" font-family="'ArialMT'" font-size="9">Shapes</text>
          <rect height="18" width="26" y="1" x="1" stroke-width="1" stroke="#666666" fill="none"/>
          <ellipse ry="6" rx="6" cy="10" cx="14" stroke-width="1" stroke="#000000" fill="none"/>
          <path d="M30,10 l8,0 -4,4z" stroke-width="0" fill="#231F20"/>
		</svg>
	</g>
	<g id="cast_drawing_graph_axis">
		<svg version="1.1" xmlns="http://www.w3.org/2000/svg" xmlns:xlink="http://www.w3.org/1999/xlink" x="0px" y="0px" width="24.507px" height="30px" viewBox="23.493 0 24.507 30" enable-background="new 23.493 0 24.507 30" xml:space="preserve">
			<text transform="matrix(1 0 0 1 23.2397 27.7773)" font-family="'ArialMT'" font-size="9">Graph</text>
			<g>
				<linearGradient id="SVGID_1_" gradientUnits="userSpaceOnUse" x1="30.3511" y1="19.8945" x2="35.7221" y2="15.3477" gradientTransform="matrix(1 0 0 -1 0 31)">
					<stop  offset="0" style="stop-color:#FFFFFF"/>
					<stop  offset="1" style="stop-color:#C8C8C8"/>
				</linearGradient>
				<rect x="31.435" y="9.827" fill="url(#SVGID_1_)" stroke="#BBBDBF" width="3.207" height="7.103"/>
				
				<linearGradient id="SVGID_2_" gradientUnits="userSpaceOnUse" x1="35.5273" y1="21.8271" x2="42.2421" y2="16.1426" gradientTransform="matrix(1 0 0 -1 0 31)">
					<stop  offset="0" style="stop-color:#FFFFFF"/>
					<stop  offset="1" style="stop-color:#C8C8C8"/>
				</linearGradient>
				<rect x="37.281" y="7.101" fill="url(#SVGID_2_)" stroke="#BBBDBF" width="3.207" height="9.829"/>
				<polyline fill="none" stroke="#404041" points="28.747,2.956 28.747,16.956 42.746,16.956"/>
			</g>
		</svg>
	</g>
	
	<!--=======================-->
	<!-- Tabs                  -->
	<!--=======================-->

	<g id="cast_tab_starters">
		<svg version="1.1" xmlns="http://www.w3.org/2000/svg" xmlns:xlink="http://www.w3.org/1999/xlink" x="0px" y="0px" width="70px" height="30px" viewBox="0 0 70 30" enable-background="new 0 0 70 30" xml:space="preserve">
			<linearGradient id="tab_starters_grad" gradientUnits="userSpaceOnUse" x1="34.9995" y1="0" x2="34.9995" y2="30.0005">
				<stop offset="0" style="stop-color:#FFFFFF"/>
				<stop offset="1" style="stop-color:#BDBDBD"/>
			</linearGradient>
			<rect fill="url(#tab_starters_grad)" width="70" height="30"/>
			<rect x="21.023" y="10.623" fill="none" width="42.838" height="8.753"/>
			<text transform="matrix(1 0 0 1 21.0234 19.2148)" fill="#333333" font-family="'Arial'" font-size="12" font-weight="bold">Starters</text>
			<g>
				<path fill="#FFF100" stroke="#404041" d="M12.867,8L12.867,8L12.867,8L12.867,8L12.867,8c-2.494,0-4.546,2.146-4.513,4.794c0.03,2.367,1.729,3.325,2.26,4.425c0.401,1.036,0.427,3.938,0.427,3.938h3.652c0,0,0.025-2.9,0.43-3.938c0.529-1.1,2.229-2.058,2.259-4.425C17.413,10.146,15.361,8,12.867,8z"/>
				<path fill="none" stroke="#231F20" stroke-width="0.5" d="M13.77,17.355V15.23l-2.189-2.186c0,0,0.129-0.516,1.157-0.516h0.256c1.03,0,1.159,0.516,1.159,0.516l-2.188,2.186v2.118"/>
				<polygon fill="#58595B" stroke="#404041" stroke-linecap="round" stroke-linejoin="round" points="14.963,21.122 14.914,18.668 10.771,18.668 10.82,21.122 11.688,21.122 11.979,22 13.767,22 14.057,21.122 	"/>
			</g>
		</svg>
	</g>
	<g id="cast_tab_starters_selected">
		<svg version="1.1"  xmlns="http://www.w3.org/2000/svg" xmlns:xlink="http://www.w3.org/1999/xlink" x="0px" y="0px" width="70px" height="30px" viewBox="0 0 70 30" enable-background="new 0 0 70 30" xml:space="preserve">
			<rect fill="#F0F0F0" width="70" height="30"/>
			<rect x="21.023" y="10.623" fill="none" width="42.838" height="8.753"/>
			<text transform="matrix(1 0 0 1 21.0234 19.2148)" fill="#333333" font-family="'Arial'" font-size="12" font-weight="bold">Starters</text>
			<g>
				<path fill="#FFF100" stroke="#404041" d="M12.867,8L12.867,8L12.867,8L12.867,8L12.867,8c-2.494,0-4.546,2.146-4.513,4.794c0.03,2.367,1.729,3.325,2.26,4.425c0.401,1.036,0.427,3.938,0.427,3.938h3.652c0,0,0.025-2.9,0.43-3.938c0.529-1.1,2.229-2.058,2.259-4.425C17.413,10.146,15.361,8,12.867,8z"/>
				<path fill="none" stroke="#231F20" stroke-width="0.5" d="M13.77,17.355V15.23l-2.189-2.186c0,0,0.129-0.516,1.157-0.516h0.256c1.03,0,1.159,0.516,1.159,0.516l-2.188,2.186v2.118"/>
				<polygon fill="#58595B" stroke="#404041" stroke-linecap="round" stroke-linejoin="round" points="14.963,21.122 14.914,18.668 10.771,18.668 10.82,21.122 11.688,21.122 11.979,22 13.767,22 14.057,21.122 	"/>
			</g>
		</svg>
	</g>
	<g id="cast_tab_draw">
		<svg version="1.1"  xmlns="http://www.w3.org/2000/svg" xmlns:xlink="http://www.w3.org/1999/xlink" x="0px" y="0px" width="64px" height="30px" viewBox="0 0 64 30" enable-background="new 0 0 64 30" xml:space="preserve">
			<linearGradient id="tab_draw_grad1" gradientUnits="userSpaceOnUse" x1="31.9995" y1="0" x2="31.9995" y2="30.0005">
				<stop offset="0" style="stop-color:#FFFFFF"/>
				<stop offset="1" style="stop-color:#BDBDBD"/>
			</linearGradient>
			<rect fill="url(#tab_draw_grad1)" width="64" height="30"/>
			<rect x="27.273" y="10.623" fill="none" width="30.045" height="8.753"/>
			<text transform="matrix(1 0 0 1 27.2734 19.2148)" fill="#333333" font-family="'Arial'" font-size="12" font-weight="bold">Draw</text>
			<g>
				<linearGradient id="tab_draw_grad2" gradientUnits="userSpaceOnUse" x1="-266.9878" y1="-384.9243" x2="-266.9693" y2="-384.9061" gradientTransform="matrix(542.9033 0 0 429.3871 144959.6719 165291.4531)">
					<stop  offset="0" style="stop-color:#FFFFFF"/>
					<stop  offset="1" style="stop-color:#FF6666"/>
				</linearGradient>
				<path id="svg_1_8_" fill="url(#tab_draw_grad2)" stroke="#404041" d="M10.083,16.604L16.158,7c9.381,3.712-2.87,4.098,6.067,9.604H10.083z"/>
				<g id="rect_1_">
					<linearGradient id="tab_draw_grad3" gradientUnits="userSpaceOnUse" x1="-266.8271" y1="-384.0693" x2="-266.8165" y2="-384.0543" gradientTransform="matrix(510 0 0 306 136100.5 117539.75)">
						<stop  offset="0" style="stop-color:#FFFFFF"/>
						<stop  offset="1" style="stop-color:#3B7E9B"/>
					</linearGradient>
					<rect id="svg_1_2_" x="17.193" y="12.735" fill="url(#tab_draw_grad3)" stroke="#404041" width="6.438" height="6.437"/>
				</g>
				<path id="svg_12_3_" fill="none" stroke="#404041" d="M11.764,13.077c3.927-0.531,3.287,2.227,0,6.789c7.214-1.276,3.818,1.694,3.818,4.134"/>
			</g>
		</svg>
	</g>
	<g id="cast_tab_draw_selected">
		<svg version="1.1"  xmlns="http://www.w3.org/2000/svg" xmlns:xlink="http://www.w3.org/1999/xlink" x="0px" y="0px" width="64px" height="30px" viewBox="0 0 64 30" enable-background="new 0 0 64 30" xml:space="preserve">
			<g>
				<rect fill="#F0F0F0" width="64" height="30"/>
				<rect x="27.273" y="10.623" fill="none" width="30.045" height="8.753"/>
				<text transform="matrix(1 0 0 1 27.2734 19.2148)" fill="#333333" font-family="'Arial'" font-size="12" font-weight="bold">Draw</text>
				<g>
					<linearGradient id="tab_draw_selected_grad" gradientUnits="userSpaceOnUse" x1="-274.6577" y1="409.6025" x2="-274.6392" y2="409.5843" gradientTransform="matrix(542.9033 0 0 -429.3871 149124.1719 175887.7969)">
						<stop  offset="0" style="stop-color:#FFFFFF"/>
						<stop  offset="1" style="stop-color:#FF6666"/>
					</linearGradient>
					<path id="svg_1_8_" fill="url(#tab_draw_selected_grad)" stroke="#404041" d="M10.083,16.604L16.158,7c9.381,3.712-2.87,4.098,6.067,9.604 H10.083z"/>
					<g id="rect_1_">
						<linearGradient id="tab_draw_selected_grad2" gradientUnits="userSpaceOnUse" x1="-274.541" y1="409.0205" x2="-274.5303" y2="409.0055" gradientTransform="matrix(510 0 0 -306 140034.5 125174.75)">
							<stop  offset="0" style="stop-color:#FFFFFF"/>
							<stop  offset="1" style="stop-color:#3B7E9B"/>
						</linearGradient>
						<rect id="svg_1_2_" x="17.193" y="12.735" fill="url(#tab_draw_selected_grad2)" stroke="#404041" width="6.438" height="6.437"/>
					</g>
					<path id="svg_12_3_" fill="none" stroke="#404041" d="M11.764,13.077c3.927-0.531,3.287,2.227,0,6.789c7.214-1.276,3.818,1.694,3.818,4.134"/>
				</g>
			</g>
		</svg>
	</g>
	<g id="cast_tab_type">
		<svg version="1.1"  xmlns="http://www.w3.org/2000/svg" xmlns:xlink="http://www.w3.org/1999/xlink" x="0px" y="0px" width="64px" height="30px" viewBox="0 0 64 30" enable-background="new 0 0 64 30" xml:space="preserve">
			<linearGradient id="tab_type_grad" gradientUnits="userSpaceOnUse" x1="31.9995" y1="0" x2="31.9995" y2="30.0005">
				<stop offset="0" style="stop-color:#FFFFFF"/>
				<stop offset="1" style="stop-color:#BDBDBD"/>
			</linearGradient>
			<rect fill="url(#tab_type_grad)" width="64" height="30"/>
			<rect x="26.787" y="10.623" fill="none" width="26.234" height="8.753"/>
			<text transform="matrix(1 0 0 1 26.7871 19.2148)" fill="#333333" font-family="'Arial'" font-size="12" font-weight="bold">Type</text>
			<g>
				<path fill="#8CBAFF" stroke="#404041" d="M18.904,9.5h-3.541l-4.386,11h3.09l0.749-2.311h4.647l0.726,2.283h2.957L18.904,9.5zM15.536,16.432l1.605-4.235l1.551,4.235H15.536z"/>
			</g>
		</svg>
	</g>
	<g id="cast_tab_type_selected">
		<svg version="1.1"  xmlns="http://www.w3.org/2000/svg" xmlns:xlink="http://www.w3.org/1999/xlink" x="0px" y="0px" width="64px" height="30px" viewBox="0 0 64 30" enable-background="new 0 0 64 30" xml:space="preserve">
			<rect fill="#F0F0F0" width="64" height="30"/>
			<rect x="26.787" y="10.623" fill="none" width="26.234" height="8.753"/>
			<text transform="matrix(1 0 0 1 26.7871 19.2148)" fill="#333333" font-family="'Arial'" font-size="12" font-weight="bold">Type</text>
			<g>
				<path fill="#8CBAFF" stroke="#404041" d="M18.904,9.5h-3.541l-4.386,11h3.09l0.749-2.311h4.647l0.726,2.283h2.957L18.904,9.5z M15.536,16.432l1.605-4.235l1.551,4.235H15.536z"/>
			</g>
		</svg>
	</g>
	<g id="cast_tab_edit">
		<svg version="1.1" xmlns="http://www.w3.org/2000/svg" xmlns:xlink="http://www.w3.org/1999/xlink" x="0px" y="0px" width="64px" height="30px" viewBox="0 0 64 30" enable-background="new 0 0 64 30" xml:space="preserve">
			<linearGradient id="tab_edit_grad" gradientUnits="userSpaceOnUse" x1="31.9995" y1="0" x2="31.9995" y2="30.0005">
				<stop  offset="0" style="stop-color:#FFFFFF"/>
				<stop  offset="1" style="stop-color:#BDBDBD"/>
			</linearGradient>
			<rect fill="url(#tab_edit_grad)" width="64" height="30"/>
			<rect x="27.656" y="10.623" fill="none" width="20.988" height="8.753"/>
			<text transform="matrix(1 0 0 1 27.6562 19.2148)" fill="#333333" font-family="'Arial'" font-size="12" font-weight="bold">Edit</text>
			<path id="svg_13_3_" fill="#8CBAFF" stroke="#404041" d="M15.355,8.5l0.059,11.055l2.488-1.705l1.98,3.65l3.171-1.704l-2.49-3.116l3.451-0.242L15.355,8.5z"/>
		</svg>
	</g>
	<g id="cast_tab_edit_selected">
		<svg version="1.1"  xmlns="http://www.w3.org/2000/svg" xmlns:xlink="http://www.w3.org/1999/xlink" x="0px" y="0px" width="64px" height="30px" viewBox="0 0 64 30" enable-background="new 0 0 64 30" xml:space="preserve">
			<rect fill="#F0F0F0" width="64" height="30"/>
			<rect x="27.656" y="10.623" fill="none" width="20.988" height="8.753"/>
			<text transform="matrix(1 0 0 1 27.6562 19.2148)" fill="#333333" font-family="'Arial'" font-size="12" font-weight="bold">Edit</text>
			<path id="svg_13_3_" fill="#8CBAFF" stroke="#404041" d="M15.355,8.5l0.059,11.055l2.488-1.705l1.98,3.65l3.171-1.704l-2.49-3.116l3.451-0.242L15.355,8.5z"/>
		</svg>
	</g>
	<g id="cast_tab_zoom">
		<svg version="1.1"  xmlns="http://www.w3.org/2000/svg" xmlns:xlink="http://www.w3.org/1999/xlink" x="0px" y="0px" width="64px" height="30px" viewBox="0 0 64 30" enable-background="new 0 0 64 3" xml:space="preserve">
			<g>
				<text transform="matrix(1 0 0 1 20.3047 12.666)" font-family="'Arial'" font-size="9">Zoom</text>
			</g>
			<g id="zoom_1_">
				<linearGradient id="tab_zoom_grad" gradientUnits="userSpaceOnUse" x1="-227.3921" y1="406.0029" x2="-227.3628" y2="406.0029" gradientTransform="matrix(54.8149 -54.8149 -195.4588 -195.4588 91834.3281 66907.6484)">
					<stop  offset="0" style="stop-color:#D3D3D3"/>
					<stop  offset="1" style="stop-color:#424242"/>
				</linearGradient>
				<path id="svg_29_1_" fill="url(#tab_zoom_grad)" stroke="#202020" stroke-width="0.75" d="M11.727,13.779L15.34,17.5c0.811-0.024,1.607-0.729,1.584-1.585l-3.709-3.656l-2.457-0.854L11.727,13.779L11.727,13.779z"/>
				<path id="svg_22_1_" fill="#C0C0C0" stroke="#404041" d="M6.704,1.5c3.324,0,6.018,2.694,6.018,6.017c0,3.321-2.693,6.016-6.018,6.016c-3.32,0-6.014-2.694-6.014-6.016C0.69,4.194,3.383,1.5,6.704,1.5z"/>
				<circle id="svg_27_1_" fill="#AACCFF" cx="6.704" cy="7.517" r="5.072"/>
				<path id="svg_28_1_" fill="#8CBAFF" d="M1.715,7.925C6.213,10.01,7.393,9.735,11.754,7.87c0.164,2.194-2.277,4.938-5.047,4.828C4.155,12.589,1.659,10.12,1.715,7.925L1.715,7.925z"/>
			</g>
		</svg>
	</g>
	<g id="svg_eof"/>
</svg>
