<svg xmlns="http://www.w3.org/2000/svg">
<!--=========================-->
<!-- Modified SVG-Edit Icons -->
<!--=========================-->

<g id="select">
	<svg version="1.1"  xmlns="http://www.w3.org/2000/svg" xmlns:xlink="http://www.w3.org/1999/xlink" x="0px" y="0px" width="25px" height="30px" viewBox="0 0 25 30" enable-background="new 0 0 25 30" xml:space="preserve">
		<text transform="matrix(1 0 0 1 -0.0063 27.7773)" font-family="'Arial'" font-size="9">Select</text>
		<path id="svg_13_4_" fill="#8CBAFF" stroke="#231F20" d="M7.463,3l0.184,12.751l2.854-1.992l2.323,4.191l3.64-1.998l-2.906-3.57l3.98-0.316L7.463,3z"/>
	</svg>
</g>

<g id="select_node">
	<svg version="1.1" xmlns="http://www.w3.org/2000/svg" xmlns:xlink="http://www.w3.org/1999/xlink" x="0px" y="0px" width="25px" height="30px" viewBox="0 0 25 30" enable-background="new 0 0 25 30" xml:space="preserve">
		<text transform="matrix(1 0 0 1 2.2432 27.7773)" font-family="'Arial'" font-size="9">Point</text>
		<g>
			<circle fill="#8CBAFF" stroke="#231F20" cx="9.331" cy="5.833" r="3.625"/>
			<path id="svg_13_1_" fill="#231F20" stroke="#231F20" d="M9.747,6.667l0.138,9.554l2.139-1.494l1.74,3.14l2.728-1.497l-2.177-2.675l2.98-0.237L9.747,6.667z"/>
		</g>
	</svg>
</g>

<g id="rect">
	<svg version="1.1"  xmlns="http://www.w3.org/2000/svg" xmlns:xlink="http://www.w3.org/1999/xlink" x="0px" y="0px" width="47px" height="30px" viewBox="0 0 47 30" enable-background="new 0 0 47 30" xml:space="preserve">
		<text transform="matrix(1 0 0 1 3.25 27.7773)" font-family="'Arial'" font-size="9">Rectangle</text>
		<g transform="translate(3.5,0)">
			<linearGradient id="rect_grad" gradientUnits="userSpaceOnUse" x1="-649.1919" y1="-94.5371" x2="-649.1695" y2="-94.5055" gradientTransform="matrix(510 0 0 306 331104 28934.25)">
				<stop  offset="0" style="stop-color:#FFFFFF"/>
				<stop  offset="1" style="stop-color:#3B7E9B"/>
			</linearGradient>
			<rect id="svg_1_1_" x="11" y="4" fill="url(#rect_grad)" stroke="#000000" stroke-width="0.75" width="18" height="10.799"/>
		</g>
	</svg>
</g>

<g id="ellipse">
	<svg version="1.1"  xmlns="http://www.w3.org/2000/svg" xmlns:xlink="http://www.w3.org/1999/xlink" x="0px" y="0px" width="47px" height="30px" viewBox="0 0 47 30" enable-background="new 0 0 47 30" xml:space="preserve">
		<text transform="matrix(1 0 0 1 10.25 27.7773)" font-family="'Arial'" font-size="9">Ellipse</text>
		<g transform="translate(10.5,0)">
			<linearGradient id="svg_1_1_" gradientUnits="userSpaceOnUse" x1="-656.2368" y1="-94.6709" x2="-656.2091" y2="-94.6437" gradientTransform="matrix(521.3333 0 0 340 342125 32194.25)">
				<stop  offset="0" style="stop-color:#FFFFFF"/>
				<stop  offset="1" style="stop-color:#FF6666"/>
			</linearGradient>
			<ellipse id="svg_1_4_" fill="url(#svg_1_1_)" stroke="#000000" stroke-width="0.75" cx="13" cy="9.87" rx="8.998" ry="5.87"/>
		</g>
	</svg>
</g>

<g id="pencil">
	<svg version="1.1"  xmlns="http://www.w3.org/2000/svg" xmlns:xlink="http://www.w3.org/1999/xlink" x="0px" y="0px" width="47px" height="30px" viewBox="0 0 47 30" enable-background="new 0 0 47 30" xml:space="preserve">
	<g>
		<text transform="matrix(1 0 0 1 3.25 27.8613)" fill="#333333" font-family="'Arial'" font-size="9">Freehand</text>
	</g>
	<g transform="translate(3.75,0)">
		<linearGradient id="svg_2_2_" gradientUnits="userSpaceOnUse" x1="-285.6934" y1="410.9307" x2="-285.6851" y2="410.923" gradientTransform="matrix(296.4375 0 0 -564.1875 84710.9219 231847.1875)">
			<stop  offset="0" style="stop-color:#F9D225"/>
			<stop  offset="1" style="stop-color:#BF5F00"/>
		</linearGradient>
		<path id="svg_2_1_" fill="url(#svg_2_2_)" stroke="#000000" stroke-width="0.5" d="M22.256,1.184l-2.987,6.911l0.257,8.192 l5.632-5.633l2.047-4.266"/>
		<path id="svg_10_1_" fill="#FCE0A9" stroke="#000000" stroke-width="0.0504" d="M24.986,10.912c-0.684-3.158-3.498-4.012-5.802-2.539 l0.165,8.342L24.986,10.912z"/>
		<path id="svg_11_1_" stroke="#000000" stroke-width="0.0504" d="M20.697,15.236c-0.153-0.803-0.786-1.019-1.304-0.645l0.038,2.121 L20.697,15.236z"/>
		<path id="svg_12_1_" fill="none" stroke="#000000" stroke-width="0.75" d="M12.294,2.76c4.266-0.577,3.574,2.421,0,7.38c7.841-1.385,4.15,1.845,4.15,4.496c-0.115,1.385,2.999,7.496,8.879-0.461"/>
	</g>
	</svg>
</g>

<g id="pen">
	<svg version="1.1"  xmlns="http://www.w3.org/2000/svg" xmlns:xlink="http://www.w3.org/1999/xlink" x="0px" y="0px" width="47" height="30px" viewBox="0 0 47 30" enable-background="new 0 0 47 30" xml:space="preserve">
	<g transform="translate(13,0)">
		<text transform="matrix(1 0 0 1 0.6665 27.8613)" fill="#333333" font-family="'Arial'" font-size="9">Line</text>
	</g>
	<g transform="translate(13,0)">
		<line id="svg_5" fill="none" stroke="#000000" stroke-width="0.75" x1="0.572" y1="1.93" x2="10.646" y2="18.457"/>
		<path id="svg_6" fill="#A0A0A0" stroke="#000000" stroke-width="0.5" d="M11.55,12.188l-1.23,6.33l3.396-5.32"/>
		<linearGradient id="svg_7_1_" gradientUnits="userSpaceOnUse" x1="-295.7598" y1="411.1846" x2="-295.7404" y2="411.1746" gradientTransform="matrix(152.308 0 0 -125.9578 45058.1758 51802.5703)">
			<stop  offset="0" style="stop-color:#FFFFFF"/>
			<stop  offset="1" style="stop-color:#FCE564"/>
		</linearGradient>
		<path id="svg_7" fill="url(#svg_7_1_)" stroke="#000000" stroke-width="0.5" d="M11.18,9.31c-0.325,0.886-0.512,2.021-0.425,2.628l3.646,1.526c0.389-0.258,1.356-1.441,1.356-2.119"/>
		<linearGradient id="svg_8_1_" gradientUnits="userSpaceOnUse" x1="-295.6616" y1="410.6221" x2="-295.6461" y2="410.6142" gradientTransform="matrix(262.1573 0 0 -307.9291 77523.5859 126448.2266)">
			<stop  offset="0" style="stop-color:#F2FEFF"/>
			<stop  offset="1" style="stop-color:#14609B"/>
		</linearGradient>
		<path id="svg_8" fill="url(#svg_8_1_)" stroke="#000000" stroke-width="0.5" d="M13.705,1.517l-3.089,7.235l5.974,2.922l2.672-6.061"/>
	</g>
	</svg>
</g>

<g id="text">
	<svg version="1.1"  xmlns="http://www.w3.org/2000/svg" xmlns:xlink="http://www.w3.org/1999/xlink" x="0px" y="0px" width="17px" height="30px" viewBox="0 0 17 30" enable-background="new 0 0 17 30" xml:space="preserve">
		<text transform="matrix(1 0 0 1 0.2476 27.7773)" font-family="'Arial'" font-size="9">Text</text>
		<g>
			<path fill="#8CBAFF" stroke="#000000" d="M10.771,2.963H6.406L1,16.523h3.809l0.924-2.846h5.728l0.894,2.812H16L10.771,2.963zM6.619,11.507l1.979-5.22l1.912,5.22H6.619z"/>
		</g>
	</svg>
</g>


<g id="path">
<svg version="1.1"  xmlns="http://www.w3.org/2000/svg" xmlns:xlink="http://www.w3.org/1999/xlink" x="0px" y="0px" width="47px" height="30px" viewBox="0 0 47 30" enable-background="new 0 0 47 30" xml:space="preserve">
	<text transform="matrix(1 0 0 1 -0.0151 27.7773)" font-family="'Arial'" font-size="9">Free Shape</text>
	<g>
		<linearGradient id="svg_1_1_" gradientUnits="userSpaceOnUse" x1="-645.7583" y1="-94.8149" x2="-645.7313" y2="-94.7885" gradientTransform="matrix(542.9033 0 0 429.3871 350599.5938 40718.5625)">
			<stop  offset="0" style="stop-color:#FFFFFF"/>
			<stop  offset="1" style="stop-color:#FF6666"/>
		</linearGradient>
		<path id="svg_1_7_" fill="url(#svg_1_1_)" stroke="#000000" stroke-width="0.75" d="M14.647,16l8.854-14c13.677,5.413-4.185,5.974,8.851,14H14.647z"/>
	</g>
</svg>
</g>

<g id="add_subpath">
<svg xmlns="http://www.w3.org/2000/svg" viewBox="0 0 124 124" xmlns:xlink="http://www.w3.org/1999/xlink">
 <defs>
  <linearGradient id="svg_4" x1="0.33594" y1="0.28125" x2="1" y2="1">
   <stop offset="0" stop-color="#ffffff" stop-opacity="1"/>
   <stop offset="1" stop-color="#33a533" stop-opacity="1"/>
  </linearGradient>
 </defs>
 <g>
  <path d="m6,103l55,-87c85,33.64 -26,37.12 55,87l-110,0z" id="svg_1" fill="url(#svg_4)" stroke="#000000" stroke-width="4" stroke-dasharray="null"/>
  <g id="svg_7">
   <circle stroke-dasharray="null" stroke-width="5" stroke="#000000" fill="#ffffff" id="svg_6" r="22.63281" cy="88.5" cx="45.5"/>
   <line stroke-dasharray="null" stroke-width="7" stroke="#000000" id="svg_2" y2="104.03768" x2="45.5" y1="72.96232" x1="45.5"/>
   <line stroke-dasharray="null" stroke-width="7" stroke="#000000" id="svg_3" y2="88.5" x2="61.03768" y1="88.5" x1="29.96232"/>
  </g>
 </g>
 </svg>
</g>

<g id="close_path">
<svg viewBox="0 0 300 300" xmlns="http://www.w3.org/2000/svg" xmlns:xlink="http://www.w3.org/1999/xlink">
 <g>
  <path stroke="#000" stroke-width="15" fill="#ffc8c8" d="m121.5,40l-84,106l27,115l166,2l29,-111"/>
  <line x1="240" y1="136" x2="169.5" y2="74" stroke="#A00" stroke-width="25" fill="none"/>
  <path stroke="none" fill ="#A00" d="m158,65l31,74l-3,-50l51,-3z"/>
  <g stroke-width="15" stroke="#00f" fill="#0ff">
  <circle r="30" cy="41" cx="123"/>
  <circle r="30" cy="146" cx="40"/>
  <circle r="30" cy="260" cx="69"/>
  <circle r="30" cy="260" cx="228"/>
  <circle r="30" cy="148" cx="260"/>
  </g>
 </g>
</svg>
</g>

<g id="open_path">
<svg viewBox="0 0 300 300" xmlns="http://www.w3.org/2000/svg" xmlns:xlink="http://www.w3.org/1999/xlink">
 <g>
  <path stroke="#000" stroke-width="15" fill="#ffc8c8" d="m123.5,38l-84,106l27,115l166,2l29,-111"/>
  <line x1="276.5" y1="153" x2="108.5" y2="24" stroke="#000" stroke-width="10" fill="none"/>
  <g stroke-width="15" stroke="#00f" fill="#0ff">
   <circle r="30" cy="41" cx="123"/>
   <circle r="30" cy="146" cx="40"/>
   <circle r="30" cy="260" cx="69"/>
   <circle r="30" cy="260" cx="228"/>
   <circle r="30" cy="148" cx="260"/>
  </g>
  <g  stroke="#A00" stroke-width="15" fill="none">
   <line x1="168" y1="24" x2="210" y2="150"/>
   <line x1="210" y1="24" x2="168" y2="150"/>
  </g>
 </g>
</svg>
</g>

<g id="zoom">
	<svg viewBox="0 0 150 150" xmlns="http://www.w3.org/2000/svg" xmlns:xlink="http://www.w3.org/1999/xlink">
	 <defs>
	  <linearGradient id="svg_30" x1="0" y1="0" x2="1" y2="0">
	   <stop offset="0" stop-color="#d3d3d3" stop-opacity="1"/>
	   <stop offset="1" stop-color="#424242" stop-opacity="1"/>
	  </linearGradient>
	 </defs>
	  <path d="m107.14774,101.03477l-0.64774,43.96523c5.00857,4.72089 14.00811,5.27188 19,0l-0.31667,-44.16l-9.61514,-19.84l-8.42046,20.03477z" id="svg_29" fill="url(#svg_30)" stroke="#202020" stroke-width="2" transform="rotate(-45, 116, 114)"/>
	  <circle cx="58" cy="58" r="51" id="svg_22" fill="#c0c0c0" stroke="#202020" stroke-width="5"/>
	  <circle cx="58" cy="58" r="43" id="svg_27" fill="#aaccff" stroke="none"/>
	  <path d="m15.68604,61.46511c38.13954,17.67442 48.13954,15.34883 85.11628,-0.46511c1.39536,18.60465 -19.30231,41.86047 -42.7907,40.93023c-21.6279,-0.93023 -42.7907,-21.86046 -42.32558,-40.46511z" id="svg_28" fill="#8cbaff" stroke="none"/>
	</svg>
</g>

<g id="arrow_right">
	<svg xmlns:xlink="http://www.w3.org/1999/xlink" xmlns="http://www.w3.org/2000/svg" viewBox="0 0 25 50">
	  <path stroke="#000000" fill="#000000" d="m0,0l0,50l25,-25l-25,-25z"/>
	</svg>
</g>

<g id="arrow_right_big">
	<svg xmlns:xlink="http://www.w3.org/1999/xlink" xmlns="http://www.w3.org/2000/svg" viewBox="0 0 40 50">
	  <path stroke="#000000" fill="#000000" d="m0,0l0,50l25,-25l-25,-25z"/>
	</svg>
</g>

<g id="arrow_down">
	<svg viewBox="0 0 50 40" xmlns="http://www.w3.org/2000/svg" xmlns:xlink="http://www.w3.org/1999/xlink">
	  <path transform="rotate(90, 26, 13)" d="m14,-12l0,50l25,-25l-25,-25z" fill="#000000" stroke="#000000"/>
	</svg>
</g>

<g id="fill">
<svg width="32" height="33" xmlns="http://www.w3.org/2000/svg">
  <g id="svg_5">
   <path id="svg_4" d="m17.49167,10.97621c6.9875,-0.325 12.1875,2.70833 12.13333,7.36667l-0.325,10.075c-0.75833,4.0625 -2.275,3.0875 -3.03333,0.10833l0.21667,-9.64166c-0.43333,-0.975 -1.08333,-1.625 -1.95,-1.51667" stroke-linejoin="round" stroke="#606060" fill="#c0c0c0"/>
   <path id="svg_1" d="m2.00055,17.1309l10.72445,-10.72445l12.67445,12.13279l-3.52056,0.05389l-9.15389,9.26223l-10.72445,-10.72445z" stroke-linejoin="round" stroke="#000000" fill="#c0c0c0"/>
   <path id="svg_3" d="m14.35,13.57621c-0.1625,-3.95417 0.86667,-11.7 -1.84167,-11.59167c-2.70833,0.10833 -2.6,2.05833 -2.16667,6.93333" stroke-linejoin="round" stroke="#000000" fill="none"/>
   <circle id="svg_2" r="1.60938" cy="15.20121" cx="14.45833" stroke-linejoin="round" stroke="#000000" fill="none"/>
  </g>
</svg>
</g>

<g id="stroke">
<svg width="50" height="50" xmlns="http://www.w3.org/2000/svg">
  <rect fill="none" stroke="#707070" stroke-width="10" x="8.625" y="8.625" width="32.75" height="32.75" id="svg_1"/>
</svg>
</g>

<g id="opacity">
<svg width="50" height="50" xmlns="http://www.w3.org/2000/svg">
 <defs>
  <linearGradient y2="0.1" x2="0.9" y1="0.9" x1="0.1" id="svg_7">
   <stop stop-color="#000000" offset="0"/>
   <stop stop-opacity="0" stop-color="#000000" offset="1"/>
  </linearGradient>
 </defs>
  <rect id="svg_4" height="50" width="50" y="0" x="0" fill="#ffffff"/>
  <rect id="svg_1" height="25" width="25" y="0" x="0" fill="#a0a0a0"/>
  <rect id="svg_2" height="25" width="25" y="25" x="25" fill="#a0a0a0"/>
  <rect id="svg_3" height="50" width="50" y="0" x="0" stroke-width="2" stroke="url(#svg_7)" fill="url(#svg_7)"/>
 </svg>
</g>

<g id="undo">
	<svg version="1.1"  xmlns="http://www.w3.org/2000/svg" xmlns:xlink="http://www.w3.org/1999/xlink" x="0px" y="0px" width="39px" height="19px" viewBox="0 0 39 19" enable-background="new 0 0 39 19" xml:space="preserve">
		<g>
			<text transform="matrix(1 0 0 1 17.6357 12.666)" font-family="'Arial'" font-size="9">Undo</text>
		</g>
		<g>
			<linearGradient id="undo_grad" gradientUnits="userSpaceOnUse" x1="-291.7803" y1="404.9336" x2="-291.7746" y2="404.905" gradientTransform="matrix(0 -487.0444 -408.6372 0 165470.8125 -142098.6094)">
				<stop  offset="0" style="stop-color:#F7F963"/>
				<stop  offset="1" style="stop-color:#D3C310"/>
			</linearGradient>
			<path id="svg_45_4_" fill="url(#undo_grad)" stroke="#404041" d="M6.992,12.569L1.015,7.078L7.089,1.5l0.027,3.178h2.279c2.297,0.036,4.884,2.317,5.044,6.545c0,4.344-3.146,5.967-6.214,6.276c1.402-0.517,3.17-2.638,3.082-4.499c0.088-2.275-0.518-3.698-2.096-3.698H6.992V12.569L6.992,12.569z"/>
		</g>
	</svg>
</g>

<g id="redo">
	<svg version="1.1"  xmlns="http://www.w3.org/2000/svg" xmlns:xlink="http://www.w3.org/1999/xlink" x="0px" y="0px" width="38px" height="19px" viewBox="0 0 38 19" enable-background="new 0 0 38 19" xml:space="preserve">
		<g>
			<text transform="matrix(1 0 0 1 16.543 12.666)" font-family="'Arial'" font-size="9">Redo</text>
		</g>
		<g>
			<linearGradient id="redo_grad" gradientUnits="userSpaceOnUse" x1="-309.7788" y1="-389.2739" x2="-309.7788" y2="-389.2416" gradientTransform="matrix(0 -486.0009 392.1272 0 152645.8438 -150543.2344)">
				<stop  offset="0" style="stop-color:#98FC46"/>
				<stop  offset="1" style="stop-color:#56AA25"/>
			</linearGradient>
			<path id="svg_45_1_" fill="url(#redo_grad)" stroke="#404041" d="M13.689,7.077L7.85,1.5L7.824,4.679H5.629c-2.207,0.035-4.697,2.315-4.848,6.543c0,4.344,3.021,5.967,5.979,6.277c-1.354-0.518-3.053-2.639-2.965-4.501c-0.088-2.272,0.496-3.698,2.014-3.698h2.133v3.266L13.689,7.077z"/>
		</g>
	</svg>
</g>

<g id="clone">
<svg version="1.1"  xmlns="http://www.w3.org/2000/svg" xmlns:xlink="http://www.w3.org/1999/xlink" width="24px" height="24px" viewBox="0 0 24 24" enable-background="new 0 0 24 24">
 <defs>
  <linearGradient y2="1" x2="1" y1="0" x1="0" id="svg_36">
   <stop stop-opacity="1" stop-color="#f9f3de" offset="0"/>
   <stop stop-opacity="1" stop-color="#ccbd8f" offset="1"/>
  </linearGradient>
  <linearGradient y2="0.80078" x2="0.42578" y1="0" x1="0" id="svg_69">
   <stop stop-opacity="1" stop-color="#f9f3de" offset="0"/>
   <stop stop-opacity="1" stop-color="#af995b" offset="1"/>
  </linearGradient>
 </defs>
  <g transform="scale(0.5)">
  <path stroke="#8f5902" fill="url(#svg_69)" id="svg_34" d="m2.11676,16.32061l-0.13787,-5.05515l1.93015,-2.02206l10.11029,0l2.02206,2.29779l0,4.77941l-13.92463,0z"/>
  <rect x="7.85379" y="6.30027" width="2.2932" height="4.3407" id="svg_38" fill="url(#svg_36)" stroke="#8f5902" rx="1" ry="1"/>
  <circle stroke="#8f5902" fill="url(#svg_36)" id="svg_35" r="2.96392" cy="4.48149" cx="9.11757"/>
  <line x1="2.44838" y1="12.03512" x2="15.5524" y2="12.03512" id="svg_39" stroke="#f9f3de" fill="none"/>
  <path d="m6.72427,12.55859l4.74203,0l-2.30831,2.07258l-2.43372,-2.07258z" id="svg_43" fill="#000000" stroke="none"/>
  </g>
</svg>
</g>

<g id="delete">
	<svg version="1.1"  xmlns="http://www.w3.org/2000/svg" xmlns:xlink="http://www.w3.org/1999/xlink" x="0px" y="0px" width="24px" height="24px" viewBox="0 0 24 24" enable-background="new 0 0 24 24" xml:space="preserve">
		<linearGradient id="Delete_1_" gradientUnits="userSpaceOnUse" x1="6.0005" y1="11.5" x2="6.0005" y2="0.5005">
			<stop  offset="0" style="stop-color:#10284C"/>
			<stop  offset="1" style="stop-color:#5374AD"/>
		</linearGradient>
		<path transform="scale(0.7)" id="Delete" fill="url(#Delete_1_)" d="M9.654,1.581H7.043V0.833c0,0-0.011-0.333-0.344-0.333H5.275c-0.333,0-0.319,0.333-0.319,0.333v0.748h-2.61c-0.369,0-0.664,0.297-0.664,0.664v0.759h8.637V2.245C10.318,1.878,10.022,1.581,9.654,1.581z M2.346,10.836c0,0.367,0.297,0.664,0.664,0.664h5.98c0.367,0,0.664-0.297,0.664-0.664V3.668H2.346V10.836z M7.618,4.326h1.029v5.861c0,0.285-0.231,0.516-0.515,0.516c-0.286,0-0.515-0.23-0.515-0.516V4.326zM5.485,4.326h1.028v5.861c0,0.285-0.229,0.516-0.514,0.516c-0.286,0-0.515-0.23-0.515-0.516V4.326z M3.336,4.326h1.031v5.861c0,0.285-0.231,0.516-0.515,0.516c-0.284,0-0.517-0.23-0.517-0.516V4.326z"/>
	</svg>
</g>

<g id="go_up">
	<svg xmlns:xlink="http://www.w3.org/1999/xlink" xmlns="http://www.w3.org/2000/svg" viewBox="0 0 18 18">
	 <defs>
	  <linearGradient y2="0" x2="0.7" y1="0" x1="0" id="svg_74">
	   <stop stop-opacity="1" stop-color="#afe853" offset="0"/>
	   <stop stop-opacity="1" stop-color="#52a310" offset="1"/>
	  </linearGradient>
	 </defs>
	  <path stroke="#008000" fill="url(#svg_74)" id="svg_33" d="m5.38492,16.77043l7.07692,0l0,-5.23077l4.15385,0l-7.69231,-10.15385l-7.69231,10.15385l4.15385,0l0,5.23077z"/>
	</svg>
</g>

<g id="go_down">
<svg xmlns:xlink="http://www.w3.org/1999/xlink" xmlns="http://www.w3.org/2000/svg" viewBox="0 0 18 18">
 <defs>
  <linearGradient y2="0" x2="0.7" y1="0" x1="0" id="svg_75">
   <stop stop-opacity="1" stop-color="#afe853" offset="0"/>
   <stop stop-opacity="1" stop-color="#52a310" offset="1"/>
  </linearGradient>
 </defs>
  <path stroke="#008000" fill="url(#svg_75)" id="svg_33" d="m5.3015,1.69202l6.93483,0l0,5.07323l4.07045,0l-7.53786,9.84803l-7.53786,-9.84803l4.07045,0l0,-5.07323z"/>
 </svg>
</g>

<g id="move_bottom">
	<svg version="1.1"  xmlns="http://www.w3.org/2000/svg" xmlns:xlink="http://www.w3.org/1999/xlink" x="0px" y="0px" width="24px" height="24px" viewBox="0 0 24 24" enable-background="new 0 0 24 24" xml:space="preserve">
		<g transform="scale(0.35)">
			<linearGradient id="SVGID_1_" gradientUnits="userSpaceOnUse" x1="6" y1="6" x2="19" y2="19">
				<stop  offset="0" style="stop-color:#FFFFFF"/>
				<stop  offset="1" style="stop-color:#3B7E9B"/>
			</linearGradient>
			<rect x="6" y="6" fill="url(#SVGID_1_)" stroke="#000000" stroke-width="0.75" width="13" height="13"/>
			<linearGradient id="SVGID_2_" gradientUnits="userSpaceOnUse" x1="1" y1="1" x2="12" y2="12">
				<stop  offset="0" style="stop-color:#FFFFFF"/>
				<stop  offset="1" style="stop-color:#C8C8C8"/>
			</linearGradient>
			<rect x="1" y="1" fill="url(#SVGID_2_)" stroke="#BBBDBF" stroke-width="0.5" width="11" height="11"/>
			<linearGradient id="SVGID_3_" gradientUnits="userSpaceOnUse" x1="14" y1="14" x2="23" y2="23">
				<stop  offset="0" style="stop-color:#FFFFFF"/>
				<stop  offset="1" style="stop-color:#C8C8C8"/>
			</linearGradient>
			<rect x="14" y="14" fill="url(#SVGID_3_)" stroke="#BBBDBF" stroke-width="0.5" width="9" height="9"/>
		</g>
	</svg>
</g>

<g id="move_top">
	<svg version="1.1"  xmlns="http://www.w3.org/2000/svg" xmlns:xlink="http://www.w3.org/1999/xlink" x="0px" y="0px" width="24px" height="24px" viewBox="0 0 24 24" enable-background="new 0 0 24 24" xml:space="preserve">
		<g transform="scale(0.35)">
			<linearGradient id="SVGID_1_" gradientUnits="userSpaceOnUse" x1="1" y1="1" x2="9" y2="9">
				<stop  offset="0" style="stop-color:#FFFFFF"/>
				<stop  offset="1" style="stop-color:#C8C8C8"/>
			</linearGradient>
			<rect x="1" y="1" fill="url(#SVGID_1_)" stroke="#BBBDBF" stroke-width="0.5" width="9" height="9"/>
			<linearGradient id="SVGID_2_" gradientUnits="userSpaceOnUse" x1="14" y1="14" x2="22" y2="22">
				<stop  offset="0" style="stop-color:#FFFFFF"/>
				<stop  offset="1" style="stop-color:#C8C8C8"/>
			</linearGradient>
			<rect x="14" y="14" fill="url(#SVGID_2_)" stroke="#BBBDBF" stroke-width="0.5" width="9" height="9"/>
			<linearGradient id="SVGID_3_" gradientUnits="userSpaceOnUse" x1="5" y1="5" x2="18" y2="18">
				<stop  offset="0" style="stop-color:#FFFFFF"/>
				<stop  offset="1" style="stop-color:#3B7E9B"/>
			</linearGradient>
			<rect x="5" y="5" fill="url(#SVGID_3_)" stroke="#000000" stroke-width="0.75" width="13" height="13"/>
		</g>
	</svg>
</g>

<g id="to_path">
<svg viewBox="0 0 24 24" xmlns="http://www.w3.org/2000/svg" xmlns:xlink="http://www.w3.org/1999/xlink">
 <defs>
  <linearGradient y2="0.46875" x2="0.42969" y1="0.10156" x1="0.10547" id="svg_105">
   <stop stop-color="#ff0000" offset="0"/>
   <stop stop-opacity="0" stop-color="#ff0000" offset="1"/>
  </linearGradient>
 </defs>
 <g>
  <circle cx="21" cy="21.3125" r="18.44531" id="svg_120" fill="url(#svg_105)" stroke="#000000"/>
  <path fill="none" stroke="#000000" d="m2.875,21.3125c-0.375,-9.25 7.75,-18.875 17.75,-18" id="svg_115"/>
  <line x1="25.375" y1="3.0625" x2="8.5" y2="3.0625" id="svg_116" stroke="#808080" fill="none"/>
  <line x1="2.625" y1="24.75" x2="2.625" y2="9.8125" id="svg_117" stroke="#808080" fill="none"/>
  <circle cx="8.5" cy="2.9375" r="1.95313" fill="#00ffff" stroke="#0000ff" stroke-width="0.5" id="svg_118"/>
  <circle cx="2.625" cy="9.8125" r="1.95313" fill="#00ffff" stroke="#0000ff" stroke-width="0.5" id="svg_119"/>
  <circle cx="20.875" cy="3.1875" r="2.5" id="svg_112" fill="#00ffff" stroke="#0000ff"/>
  <circle cx="2.875" cy="21.0625" r="2.5" fill="#00ffff" stroke="#0000ff" id="svg_114"/>
 </g>
</svg>
</g>

<g id="link_controls">
<svg viewBox="0 0 24 24" xmlns:xlink="http://www.w3.org/1999/xlink" xmlns="http://www.w3.org/2000/svg">
  <path stroke-width="2" id="svg_102" d="m9.875,23c-2,-4.25 -1.6875,-7.375 1.6875,-10.5c3.375,-3.125 7.5625,-2.75 11.0625,2" stroke="#8dd35f" fill="none"/>
  <line fill="none" stroke="#606060" id="svg_109" y2="4" x2="19" y1="19" x1="4"/>
  <circle stroke="#0000ff" fill="#00ffff" id="svg_111" r="2.17578" cy="11.5" cx="11.5"/>
  <circle stroke-width="0.5" id="svg_121" stroke="#0000ff" fill="#00ffff" r="2.26172" cy="4" cx="19"/>
  <circle id="svg_123" stroke-width="0.5" stroke="#0000ff" fill="#00ffff" r="2.26172" cy="19" cx="4"/>
</svg>
</g>

<g id="reorient">
<svg viewBox="0 0 24 24" xmlns:xlink="http://www.w3.org/1999/xlink" xmlns="http://www.w3.org/2000/svg">
 <defs>
  <linearGradient y2="1" x2="1" y1="1" x1="0" id="svg_113">
   <stop stop-opacity="0" stop-color="#0000ff" offset="0"/>
   <stop stop-opacity="1" stop-color="#507ece" offset="1"/>
  </linearGradient>
 </defs>
  <rect stroke-dasharray="2,2" stroke="#0000ff" fill="none" id="svg_108" height="19.125" width="18.625" y="2.625" x="2.875"/>
  <rect transform="rotate(45, 12.2344, 12.1719)" stroke="#000000" fill="url(#svg_113)" id="svg_107" height="6.125" width="16" y="9.10848" x="4.23267"/>
</svg>
</g>

<g id="group">
<svg viewBox="0 0 16 16" xmlns="http://www.w3.org/2000/svg" xmlns:xlink="http://www.w3.org/1999/xlink">
<g transform="scale(0.3)">
	 <defs>
	  <linearGradient id="svg_90" x1="0" y1="0" x2="1" y2="1">
	   <stop offset="0" stop-color="#ccddff" stop-opacity="1"/>
	   <stop offset="1" stop-color="#789fed" stop-opacity="1"/>
	  </linearGradient>
	  <linearGradient id="svg_92" x1="0" y1="0" x2="1" y2="1">
	   <stop offset="0" stop-color="#70a1e5" stop-opacity="1"/>
	   <stop offset="1" stop-color="#4b6baf" stop-opacity="1"/>
	  </linearGradient>
	 </defs>
	  <rect x="13.5" y="0.5" width="2" height="2" fill="#a0a0a0" stroke="#555555" id="svg_79"/>
	  <rect x="13.5" y="13.5" width="2" height="2" fill="#a0a0a0" stroke="#555555" id="svg_82"/>
	  <rect x="0.5" y="13.5" width="2" height="2" fill="#a0a0a0" stroke="#555555" id="svg_83"/>
	  <rect x="2.5" y="2.5" width="8" height="7" fill="#a0a0a0" stroke="#555555" id="svg_85"/>
	  <rect x="2.5" y="2.5" width="8" height="7" fill="url(#svg_90)" stroke="url(#svg_92)" id="svg_87"/>
	  <rect x="5.5" y="6.5" width="8" height="7" id="svg_84" fill="#7399d6" stroke="url(#svg_92)"/>
	  <rect x="0.5" y="0.5" width="2" height="2" id="svg_78" fill="#a0a0a0" stroke="#555555"/>
  </g>
 </svg>
</g>

<g id="ungroup">
<svg viewBox="0 0 16 16" xmlns="http://www.w3.org/2000/svg" xmlns:xlink="http://www.w3.org/1999/xlink">
  <g transform="scale(0.3)">
	 <defs>
	  <linearGradient id="svg_90" x1="0" y1="0" x2="1" y2="1">
	   <stop offset="0" stop-color="#ccddff" stop-opacity="1"/>
	   <stop offset="1" stop-color="#789fed" stop-opacity="1"/>
	  </linearGradient>
	  <linearGradient id="svg_92" x1="0" y1="0" x2="1" y2="1">
	   <stop offset="0" stop-color="#70a1e5" stop-opacity="1"/>
	   <stop offset="1" stop-color="#4b6baf" stop-opacity="1"/>
	  </linearGradient>
	 </defs>
	  <rect x="2.5" y="2.5" width="8" height="7" fill="url(#svg_90)" stroke="url(#svg_92)" id="svg_87"/>
	  <rect x="5.5" y="6.5" width="8" height="7" id="svg_84" fill="#7399d6" stroke="url(#svg_92)"/>
	  <rect x="9.5" y="1.5" width="2" height="2" fill="#a0a0a0" stroke="#555555" id="svg_79"/>
	  <rect x="1.5" y="8.5" width="2" height="2" fill="#a0a0a0" stroke="#555555" id="svg_83"/>
	  <rect x="1.5" y="1.5" width="2" height="2" id="svg_78" fill="#a0a0a0" stroke="#555555"/>
	  <rect id="svg_93" x="12.5" y="5.5" width="2" height="2" fill="#a0a0a0" stroke="#555555"/>
	  <rect id="svg_94" x="12.5" y="12.5" width="2" height="2" fill="#a0a0a0" stroke="#555555"/>
	  <rect id="svg_95" x="4.5" y="12.5" width="2" height="2" fill="#a0a0a0" stroke="#555555"/>
	  <rect id="svg_96" x="4.5" y="5.5" width="2" height="2" fill="#a0a0a0" stroke="#555555"/>
  </g>
</svg>
</g>

<g id="width">
	<svg width="100" height="100" xmlns="http://www.w3.org/2000/svg">
	  <path id="svg_6" d="m19,42.5l-7.5,7.5l7.5,7.5l0,-15zm0,7.5l62,0l0,-7.5l7.5,7.5l-7.5,7.5l0,-7.5" stroke-width="8" stroke="#000000" fill="#000000"/>
	</svg>
</g>

<g id="height">
	<svg width="100" height="100" xmlns="http://www.w3.org/2000/svg">
	  <path transform="rotate(90, 50, 50)" fill="#000000" stroke="#000000" stroke-width="8" d="m19,42.5l-7.5,7.5l7.5,7.5l0,-15zm0,7.5l62,0l0,-7.5l7.5,7.5l-7.5,7.5l0,-7.5" id="svg_6"/>
	</svg>
</g>

<g id="c_radius">
<svg width="20" height="20" xmlns="http://www.w3.org/2000/svg">
  <rect stroke="#404040" fill="none" stroke-width="0.5" x="2.37501" y="2.4375" width="43.9375" height="43.9375" id="svg_1" rx="13" ry="13"/>
  <path fill="none" stroke="#000000" d="m2.43674,15.88952l13.73722,0l0.08978,-13.46483m0.08978,14.08493" id="svg_3"/>
  <line fill="none" stroke="#000000" x1="16.35107" y1="15.88934" x2="5.20504" y2="5.20504" id="svg_4" stroke-dasharray="2,2"/>
</svg>
</g>

<g id="angle">
<svg width="50" height="50" xmlns="http://www.w3.org/2000/svg">
  <path stroke-width="2" stroke-dasharray="1,3" id="svg_6" d="m32.78778,41.03469c-0.40379,-8.68145 -4.50873,-16.79003 -12.11365,-20.5932" stroke="#000000" fill="none"/>
  <path id="svg_7" d="m29.20348,7.67055l-24.20348,34.47921l41.16472,0" stroke-width="3" stroke="#404040" fill="none"/>
</svg>
</g>

<g id="blur">
<svg width="300" height="300" xmlns="http://www.w3.org/2000/svg">
 <!-- Created with SVG-edit - http://svg-edit.googlecode.com/ -->
 <defs>
  <filter id="svg_4_blur" x="-50%" y="-50%" width="200%" height="200%">
   <feGaussianBlur stdDeviation="25"/>
  </filter>
 </defs>
  <circle fill="#000000" stroke="#000000" stroke-width="5" stroke-dasharray="null" cx="150" cy="150" r="91.80151" id="svg_4" filter="url(#svg_4_blur)"/>
</svg>
</g>

<g id="fontsize">
<svg width="50" height="50" xmlns="http://www.w3.org/2000/svg" xmlns:xml="http://www.w3.org/XML/1998/namespace">
  <text fill="#606060" stroke="none" x="14.451" y="41.4587" id="svg_2" font-size="26" font-family="serif" text-anchor="middle" xml:space="preserve">T</text>
  <text fill="#000000" stroke="none" x="28.853" y="41.8685" font-size="52" font-family="serif" text-anchor="middle" xml:space="preserve" id="svg_3">T</text>
</svg>
</g>

<g id="align">
	<svg width="22" height="22" xmlns="http://www.w3.org/2000/svg">
	  <rect stroke="#606060" fill="#c0c0c0" id="svg_4" height="7" width="12" y="7.5" x="4.5"/>
	  <rect stroke="#c15909" fill="#ef9a23" id="svg_2" height="40" width="2" y="-10" x="9.5"/>
	  <rect stroke="#ffffff" fill="none" id="svg_5" height="5" width="10" y="8.5" x="5.5"/>
	</svg>
</g>

<g id="align_left">
	<svg xmlns:xlink="http://www.w3.org/1999/xlink" xmlns="http://www.w3.org/2000/svg" viewBox="0 0 22 22">
		<g transform="scale(0.3)">
			<rect stroke="#606060" fill="#ffffff" id="svg_4" height="7" width="12" y="2.5" x="2.5"/>
			<rect stroke="none" fill="#c0c0c0" id="svg_5" height="4" width="11" y="4" x="2"/>
			<rect id="svg_6" stroke="#606060" fill="#ffffff" height="7" width="18" y="12.5" x="2.5"/>
			<rect id="svg_7" stroke="none" fill="#c0c0c0" height="4" width="17" y="14" x="2"/>
			<rect stroke="#c15909" fill="#ef9a23" id="svg_2" height="40" width="2" y="-10" x="1.5"/>
		</g>
	</svg>
</g>

<g id="align_center">
	<svg viewBox="0 0 22 22" xmlns="http://www.w3.org/2000/svg" xmlns:xlink="http://www.w3.org/1999/xlink">
		<g transform="scale(0.3)">
			<rect x="1.5" y="12.5" width="18" height="7" fill="#c0c0c0" stroke="#606060" id="svg_6"/>
			<rect x="4.5" y="2.5" width="12" height="7" id="svg_4" fill="#c0c0c0" stroke="#606060"/>
			<rect x="9.5" y="-10" width="2" height="40" id="svg_2" fill="#ef9a23" stroke="#c15909"/>
			<rect x="2.5" y="13.5" width="16" height="5" fill="none" stroke="#ffffff" id="svg_7"/>
			<rect x="5.5" y="3.5" width="10" height="5" id="svg_5" fill="none" stroke="#ffffff"/>
		</g>
	</svg>
</g>

<g id="align_right">
	<svg viewBox="0 0 22 22" xmlns="http://www.w3.org/2000/svg" xmlns:xlink="http://www.w3.org/1999/xlink">
		<g transform="scale(0.3)">
		  <rect x="7.5" y="2.5" width="12" height="7" id="svg_4" fill="#ffffff" stroke="#606060"/>
		  <rect x="9" y="4" width="11" height="4" id="svg_5" fill="#c0c0c0" stroke="none"/>
		  <rect x="1.5" y="12.5" width="18" height="7" fill="#ffffff" stroke="#606060" id="svg_6"/>
		  <rect x="3" y="14" width="17" height="4" fill="#c0c0c0" stroke="none" id="svg_7"/>
		  <rect x="18.5" y="-10" width="2" height="40" id="svg_2" fill="#ef9a23" stroke="#c15909"/>
	    </g>
	</svg>
</g>

<g id="align_top">
	<svg viewBox="0 0 22 22" xmlns="http://www.w3.org/2000/svg" xmlns:xlink="http://www.w3.org/1999/xlink">
		<g transform="scale(0.3)">
		  <g transform="rotate(90, 11, 11)" id="svg_1">
		   <rect x="2.5" y="3.5" width="12" height="7" id="svg_4" fill="#ffffff" stroke="#606060"/>
		   <rect x="2" y="5" width="11" height="4" id="svg_5" fill="#c0c0c0" stroke="none"/>
		   <rect x="2.5" y="13.5" width="18" height="7" fill="#ffffff" stroke="#606060" id="svg_6"/>
		   <rect x="2" y="15" width="17" height="4" fill="#c0c0c0" stroke="none" id="svg_7"/>
		   <rect x="1.5" y="-9" width="2" height="40" id="svg_2" fill="#ef9a23" stroke="#c15909"/>
		  </g>
		</g>
	</svg>
</g>

<g id="align_middle">
<svg xmlns:xlink="http://www.w3.org/1999/xlink" xmlns="http://www.w3.org/2000/svg" viewBox="0 0 22 22">
	<g transform="scale(0.3)">
	  <g transform="rotate(90, 12, 11.5)" id="svg_1">
	   <rect id="svg_6" stroke="#606060" fill="#c0c0c0" height="7" width="18" y="14" x="3"/>
	   <rect stroke="#606060" fill="#c0c0c0" id="svg_4" height="7" width="12" y="4" x="6"/>
	   <rect stroke="#c15909" fill="#ef9a23" id="svg_2" height="40" width="2" y="-8.5" x="11"/>
	   <rect id="svg_7" stroke="#ffffff" fill="none" height="5" width="16" y="15" x="4"/>
	   <rect stroke="#ffffff" fill="none" id="svg_5" height="5" width="10" y="5" x="7"/>
	  </g>
   </g>
</svg>
</g>

<g id="align_bottom">
<svg xmlns:xlink="http://www.w3.org/1999/xlink" xmlns="http://www.w3.org/2000/svg" viewBox="0 0 22 22">
	<g transform="scale(0.3)">
	  <g transform="rotate(90, 11, 11)" id="svg_1">
	   <rect stroke="#606060" fill="#ffffff" id="svg_4" height="7" width="12" y="2.5" x="7.5"/>
	   <rect stroke="none" fill="#c0c0c0" id="svg_5" height="4" width="11" y="4" x="9"/>
	   <rect id="svg_6" stroke="#606060" fill="#ffffff" height="7" width="18" y="12.5" x="1.5"/>
	   <rect id="svg_7" stroke="none" fill="#c0c0c0" height="4" width="17" y="14" x="3"/>
	   <rect stroke="#c15909" fill="#ef9a23" id="svg_2" height="40" width="2" y="-10" x="18.5"/>
      </g>
    </g>
</svg>
</g>

<g id="linecap_butt">
<svg width="100" height="100" xmlns="http://www.w3.org/2000/svg" xmlns:se="http://svg-edit.googlecode.com" xmlns:xlink="http://www.w3.org/1999/xlink">
 <!-- Created with SVG-edit - http://svg-edit.googlecode.com/ -->
 <defs>
  <linearGradient id="svg_8" x1="0.8" y1="1" x2="0.2" y2="1">
   <stop offset="0" stop-color="#000000" stop-opacity="1"/>
   <stop offset="1" stop-color="#000000" stop-opacity="0"/>
  </linearGradient>
 </defs>
 <g>
  <rect fill="url(#svg_8)" stroke="#a0a0a0" stroke-width="2" x="-15.20196" y="43.5974" width="94.8373" height="50.3728" id="svg_3" transform="rotate(-45, 32.2148, 68.7832)"/>
  <path id="svg_1" d="m6.63133,95.07755l59.17514,-59.17514" stroke-width="3" stroke="#00ffff" fill="none"/>
  <path id="svg_2" d="m51.62893,36.10742l13.05662,-13.05662l13.05661,13.05662l-13.05661,13.05662l-13.05662,-13.05662z" stroke="none" fill="#00ffff"/>
 </g>
</svg>
</g>

<g id="linecap_square">
<svg width="100" height="100" xmlns="http://www.w3.org/2000/svg" xmlns:se="http://svg-edit.googlecode.com" xmlns:xlink="http://www.w3.org/1999/xlink">
 <!-- Created with SVG-edit - http://svg-edit.googlecode.com/ -->
 <defs>
  <linearGradient id="svg_8" x1="0.8" y1="1" x2="0.2" y2="1">
   <stop offset="0" stop-color="#000000" stop-opacity="1"/>
   <stop offset="1" stop-color="#000000" stop-opacity="0"/>
  </linearGradient>
 </defs>
 <g>
  <rect fill="url(#svg_8)" stroke="none" x="-18.51568" y="35.5974" width="117.46469" height="50.3728" id="svg_3" transform="rotate(-45, 40.2168, 60.7832)"/>
  <path id="svg_1" d="m6.63133,95.07755l59.17514,-59.17514" stroke-width="3" stroke="#00ffff" fill="none"/>
  <path id="svg_2" d="m51.62893,36.10742l13.05662,-13.05662l13.05661,13.05662l-13.05661,13.05662l-13.05662,-13.05662z" stroke="none" fill="#00ffff"/>
 </g>
</svg>
</g>

<g id="linecap_round">
<svg width="100" height="100" xmlns="http://www.w3.org/2000/svg" xmlns:xlink="http://www.w3.org/1999/xlink" xmlns:se="http://svg-edit.googlecode.com">
 <!-- Created with SVG-edit - http://svg-edit.googlecode.com/ -->
 <defs>
  <linearGradient y2="1" x2="0.2" y1="1" x1="0.8" id="svg_8">
   <stop stop-opacity="1" stop-color="#000000" offset="0"/>
   <stop stop-opacity="0" stop-color="#000000" offset="1"/>
  </linearGradient>
 </defs>
 <g>
  <path transform="rotate(-45, 41.5117, 59.4648)" id="svg_3" d="m-19.0679,34.2946l94.8359,0c36.499,-1.4142 33.67101,48.9569 0,50.3711l-94.8359,0l0,-50.3711z" stroke-width="2" stroke="#a0a0a0" fill="url(#svg_8)"/>
  <path id="svg_1" d="m6.63133,95.07755l59.17515,-59.17515" stroke-width="3" stroke="#00ffff" fill="none"/>
  <path id="svg_2" d="m51.62893,36.10742l13.05662,-13.05662l13.05661,13.05662l-13.05661,13.05662l-13.05662,-13.05662z" stroke="none" fill="#00ffff"/>
 </g>
</svg>
</g>

<g id="linejoin_miter">
<svg width="100" height="100" xmlns="http://www.w3.org/2000/svg" xmlns:xlink="http://www.w3.org/1999/xlink" xmlns:se="http://svg-edit.googlecode.com">
 <!-- Created with SVG-edit - http://svg-edit.googlecode.com/ -->
 <defs>
  <linearGradient y2="1" x2="0.2" y1="1" x1="0.8" id="svg_8">
   <stop stop-opacity="1" stop-color="#000000" offset="0"/>
   <stop stop-opacity="0" stop-color="#000000" offset="1"/>
  </linearGradient>
 </defs>
 <g>
  <path fill="none" stroke="url(#svg_8)" stroke-width="49" d="m-15,-35l75,85l-75,75" id="svg_6"/>
  <path transform="rotate(90, 57.8925, 50.2519)" fill="#00ffff" stroke="none" d="m44.83592,50.25187l13.05661,-13.05663l13.05661,13.05663l-13.05661,13.05662l-13.05661,-13.05662z" id="svg_2"/>
  <path id="svg_4" d="m-15,-35l75,85l-75,75" stroke-width="3" stroke="#00ffff" fill="none"/>
 </g>
</svg>
</g>

<g id="linejoin_bevel">
<svg width="100" height="100" xmlns="http://www.w3.org/2000/svg" xmlns:xlink="http://www.w3.org/1999/xlink" xmlns:se="http://svg-edit.googlecode.com">
 <!-- Created with SVG-edit - http://svg-edit.googlecode.com/ -->
 <defs>
  <linearGradient y2="1" x2="0.2" y1="1" x1="0.8" id="svg_8">
   <stop stop-opacity="1" stop-color="#000000" offset="0"/>
   <stop stop-opacity="0" stop-color="#000000" offset="1"/>
  </linearGradient>
 </defs>
 <g>
  <path stroke-linejoin="bevel" fill="none" stroke="url(#svg_8)" stroke-width="49" d="m-15,-35l75,85l-75,75" id="svg_6"/>
  <path transform="rotate(90, 57.8925, 50.2519)" fill="#00ffff" stroke="none" d="m44.83592,50.25187l13.05661,-13.05663l13.05661,13.05663l-13.05661,13.05662l-13.05661,-13.05662z" id="svg_2"/>
  <path id="svg_4" d="m-15,-35l75,85l-75,75" stroke-width="3" stroke="#00ffff" fill="none"/>
 </g>
</svg>
</g>

<g id="linejoin_round">
<svg width="100" height="100" xmlns="http://www.w3.org/2000/svg" xmlns:xlink="http://www.w3.org/1999/xlink" xmlns:se="http://svg-edit.googlecode.com">
 <!-- Created with SVG-edit - http://svg-edit.googlecode.com/ -->
 <defs>
  <linearGradient y2="1" x2="0.2" y1="1" x1="0.8" id="svg_8">
   <stop stop-opacity="1" stop-color="#000000" offset="0"/>
   <stop stop-opacity="0" stop-color="#000000" offset="1"/>
  </linearGradient>
 </defs>
 <g>
  <path stroke-linejoin="round" fill="none" stroke="url(#svg_8)" stroke-width="49" d="m-15,-35l75,85l-75,75" id="svg_6"/>
  <path transform="rotate(90, 57.8925, 50.2519)" fill="#00ffff" stroke="none" d="m44.83592,50.25187l13.05661,-13.05663l13.05661,13.05663l-13.05661,13.05662l-13.05661,-13.05662z" id="svg_2"/>
  <path id="svg_4" d="m-15,-35l75,85l-75,75" stroke-width="3" stroke="#00ffff" fill="none"/>
 </g>
</svg>
</g>

<g id="eye">
<svg xmlns:xlink="http://www.w3.org/1999/xlink" xmlns="http://www.w3.org/2000/svg" viewBox="0 0 17 17">
 <defs>
  <linearGradient y2="0.79688" x2="0.5625" y1="0.19141" x1="0.42969" id="svg_91">
   <stop stop-opacity="1" stop-color="#d3a16b" offset="0"/>
   <stop stop-opacity="1" stop-color="#a37c53" offset="1"/>
  </linearGradient>
 </defs>
  <path stroke="none" fill="url(#svg_91)" id="svg_9" d="m0.12852,8.18338c3.59931,-7.71208 13.19749,-7.36932 16.75236,0.08569c-3.02165,7.5407 -13.59741,7.66924 -16.75236,-0.08569z"/>
  <path id="svg_76" stroke="none" fill="#ffffff" d="m0.33033,8.2557c3.5173,-4.97159 12.89675,-4.75063 16.37062,0.05524c-2.95279,4.86111 -13.28756,4.94397 -16.37062,-0.05524z"/>
  <circle stroke="none" fill="#4f92c1" id="svg_88" r="3.08008" cy="7.71116" cx="8.45861"/>
  <circle stroke="none" fill="#000000" id="svg_89" r="1.27539" cy="7.6539" cx="8.43159"/>
 </svg>
</g>

<g id="no_color">
	<svg xmlns:xlink="http://www.w3.org/1999/xlink" xmlns="http://www.w3.org/2000/svg" viewBox="0 0 24 24">
	  <line fill="none" stroke="#d40000" id="svg_90" y2="24" x2="24" y1="0" x1="0"/>
	  <line id="svg_92" fill="none" stroke="#d40000" y2="24" x2="0" y1="0" x1="24"/>
	</svg>
</g>

<g id="ok">
	<svg xmlns:xlink="http://www.w3.org/1999/xlink" xmlns="http://www.w3.org/2000/svg" viewBox="0 0 24 24">
	 <defs>
	  <linearGradient y2="0.65625" x2="0.94141" y1="0.43359" x1="0.42969" id="svg_106">
	   <stop stop-opacity="1" stop-color="#38ff45" offset="0"/>
	   <stop stop-opacity="1" stop-color="#127c0c" offset="1"/>
	  </linearGradient>
	 </defs>
	  <path transform="rotate(45, 12, 10)" stroke="#005500" fill="url(#svg_106)" id="svg_101" d="m7.9,15.9l4.9,-0.05l0,-13.75l3.8,0l0,17.6l-8.7,0l0,-3.8z"/>
	</svg>
</g>

<g id="cancel">
<svg xmlns:xlink="http://www.w3.org/1999/xlink" xmlns="http://www.w3.org/2000/svg" viewBox="0 0 24 24">
 <defs>
  <linearGradient y2="0.65625" x2="0.94141" y1="0.43359" x1="0.42969" id="svg_9">
   <stop stop-opacity="1" stop-color="#ff3838" offset="0"/>
   <stop stop-opacity="1" stop-color="#7a0c0c" offset="1"/>
  </linearGradient>
 </defs>
  <path stroke="#550000" fill="url(#svg_9)" id="svg_101" d="m2.10526,10.52632l7.36842,0l0,-7.36842l3.68421,0l0,7.36842l7.36842,0l0,3.68421l-7.36842,0l0,7.36842l-3.68421,0l0,-7.36842l-7.36842,0l0,-3.68421z" transform="rotate(45, 11.3, 12.3)"/>
 </svg>
</g>

<g id="warning">
<svg xmlns:xlink="http://www.w3.org/1999/xlink" xmlns="http://www.w3.org/2000/svg" viewBox="0 0 24 24">
 <defs>
  <linearGradient y2="0.98047" x2="0.57813" y1="0.44922" x1="0.56641" id="svg_110">
   <stop stop-opacity="1" stop-color="#ffff00" offset="0"/>
   <stop stop-opacity="1" stop-color="#9e9e00" offset="1"/>
  </linearGradient>
 </defs>
  <path d="m1.42857,21.55559l10.71429,-19.36489l10.71429,19.20352l-21.42857,0.16137z" id="svg_44" fill="url(#svg_110)" stroke="#916d1f" stroke-width="2"/>
  <path stroke="none" fill="#000000" id="svg_103" d="m11.98371,14.68571c-0.57143,-3.82857 -1.82857,-6.4 0.11429,-6.4c2.11429,0 0.74286,2.57143 0.11429,6.4l-0.22857,0z"/>
  <circle stroke="none" fill="#000000" id="svg_104" r="1.17578" cy="17.37143" cx="12.14308"/>
 </svg>
</g>

<g id="node_delete">
<svg width="24" height="24" xmlns="http://www.w3.org/2000/svg">
  <path stroke-width="2" id="svg_102" d="m4.1953,19.42128c15.49391,-15.53349 -0.21065,0.1581 15.61084,-15.57944" stroke="#8dd35f" fill="none"/>
  <circle stroke-width="0.5" id="svg_121" stroke="#0000ff" fill="#00ffff" r="2.26172" cy="4" cx="19.75"/>
  <circle id="svg_123" stroke-width="0.5" stroke="#0000ff" fill="#00ffff" r="2.26172" cy="19.40299" cx="4.0653"/>
  <circle id="svg_7" stroke-width="0.5" stroke="#0000ff" fill="#00ffff" r="2.26172" cy="11.625" cx="11.9375"/>
  <g transform="rotate(-45.291072845458984 9.81157112121582,9.244086265563965) " id="svg_6">
   <line stroke-linecap="round" id="svg_4" y2="9.45264" x2="15.14996" y1="9.3943" x1="4.47318" stroke-dasharray="null" stroke-width="2" stroke="#ff0000" fill="none"/>
   <line stroke-linecap="round" id="svg_5" y2="14.46579" x2="9.66571" y1="4.02238" x1="9.7824" stroke-dasharray="null" stroke-width="2" stroke="#ff0000" fill="none"/>
  </g>
</svg>
</g>

<g id="node_clone">
<svg width="24" height="24" xmlns="http://www.w3.org/2000/svg">
  <path stroke-width="2" id="svg_102" d="m4.1953,19.42128c15.49391,-15.53349 -0.21065,0.1581 15.61084,-15.57944" stroke="#8dd35f" fill="none"/>
  <circle stroke-width="0.5" id="svg_121" stroke="#0000ff" fill="#00ffff" r="2.26172" cy="4" cx="19.75"/>
  <circle id="svg_123" stroke-width="0.5" stroke="#0000ff" fill="#00ffff" r="2.26172" cy="19.40299" cx="4.0653"/>
  <circle id="svg_7" stroke-width="0.5" stroke="#0000ff" fill="#00ffff" r="2.26172" cy="11.625" cx="11.9375"/>
  <line stroke-linecap="round" id="svg_5" y2="14.46579" x2="9.66571" y1="4.02238" x1="9.7824" stroke-dasharray="null" stroke-width="2" stroke="#0000ff" fill="#0000ff"/>
  <line stroke-linecap="round" id="svg_4" y2="9.45264" x2="15.14996" y1="9.3943" x1="4.47318" stroke-dasharray="null" stroke-width="2" stroke="#0000ff" fill="#0000ff"/>
</svg>
</g>

<g id="new_image">
<svg width="24" height="24" xmlns="http://www.w3.org/2000/svg" xmlns:xlink="http://www.w3.org/1999/xlink">
  <rect x="2.42792" y="1.6692" width="18" height="21" id="svg_55" fill="#eaeaea" stroke="#606060"/>
  <circle stroke="none" fill="url(#svg_9)" id="svg_65" r="6.300781" cy="7.529969" cx="17.761984"/>
 <defs>
  <radialGradient id="svg_9" cx="0.5" cy="0.5" r="0.5">
   <stop offset="0.1" stop-color="#ffe500" stop-opacity="1"/>
   <stop offset="1" stop-color="#ffff00" stop-opacity="0"/>
  </radialGradient>
 </defs>
</svg>
</g>

<g id="svg_eof"/>

</svg>
